<svg width="22" height="21" viewBox="0 0 22 21" fill="none" xmlns="http://www.w3.org/2000/svg">
<path fill-rule="evenodd" clip-rule="evenodd" d="M4.59134 5.7744L5.21947 13.2452C5.2653 13.8202 5.73509 14.2515 6.30905 14.2515H6.31322H17.6788H17.6809C18.2236 14.2515 18.6872 13.8473 18.7643 13.3109L19.7538 6.47857C19.7768 6.31607 19.7361 6.15357 19.6372 6.02232C19.5393 5.89003 19.3955 5.80461 19.233 5.78169C19.0153 5.79003 9.98093 5.77753 4.59134 5.7744V5.7744ZM6.30697 15.814C4.93509 15.814 3.77364 14.7431 3.66218 13.3734L2.70801 2.02544L1.13822 1.75461C0.712178 1.67961 0.427803 1.27648 0.50072 0.850442C0.57572 0.424401 0.987178 0.147317 1.40384 0.213984L3.57051 0.588984C3.91947 0.650442 4.18509 0.940026 4.2153 1.29419L4.46009 4.2119C19.3309 4.21815 19.3788 4.22544 19.4507 4.23378C20.0309 4.31815 20.5413 4.62128 20.8893 5.08794C21.2372 5.55357 21.383 6.12753 21.2997 6.70253L20.3111 13.5338C20.1247 14.8338 18.9955 15.814 17.683 15.814H17.6778H6.3153H6.30697Z" fill="white"/>
<path fill-rule="evenodd" clip-rule="evenodd" d="M16.0079 9.62476H13.1204C12.6881 9.62476 12.3392 9.27476 12.3392 8.84351C12.3392 8.41226 12.6881 8.06226 13.1204 8.06226H16.0079C16.4392 8.06226 16.7892 8.41226 16.7892 8.84351C16.7892 9.27476 16.4392 9.62476 16.0079 9.62476" fill="white"/>
<path fill-rule="evenodd" clip-rule="evenodd" d="M5.85885 18.6437C6.17239 18.6437 6.42551 18.8968 6.42551 19.2103C6.42551 19.5239 6.17239 19.7781 5.85885 19.7781C5.54426 19.7781 5.29114 19.5239 5.29114 19.2103C5.29114 18.8968 5.54426 18.6437 5.85885 18.6437" fill="white"/>
<mask id="mask0_104_109" style="mask-type:alpha" maskUnits="userSpaceOnUse" x="5" y="18" width="2" height="2">
<path fill-rule="evenodd" clip-rule="evenodd" d="M5.29062 19.21C5.29062 19.5246 5.54374 19.7787 5.85937 19.7787V19.7787C6.17291 19.7787 6.42604 19.5246 6.42604 19.21V19.21C6.42604 18.8964 6.17291 18.6433 5.85937 18.6433V18.6433C5.54374 18.6433 5.29062 18.8964 5.29062 19.21V19.21Z" fill="white"/>
</mask>
<g mask="url(#mask0_104_109)">
<path fill-rule="evenodd" clip-rule="evenodd" d="M0.083313 24.986H11.6344V13.4349H0.083313V24.986Z" fill="white"/>
</g>
<path fill-rule="evenodd" clip-rule="evenodd" d="M5.8578 18.9967C5.7401 18.9967 5.64426 19.0925 5.64426 19.2102C5.64426 19.4467 6.07239 19.4467 6.07239 19.2102C6.07239 19.0925 5.97551 18.9967 5.8578 18.9967M5.8578 20.5592C5.11405 20.5592 4.50989 19.954 4.50989 19.2102C4.50989 18.4665 5.11405 17.8623 5.8578 17.8623C6.60155 17.8623 7.20676 18.4665 7.20676 19.2102C7.20676 19.954 6.60155 20.5592 5.8578 20.5592" fill="white"/>
<path fill-rule="evenodd" clip-rule="evenodd" d="M17.6092 18.6437C17.9227 18.6437 18.1769 18.8968 18.1769 19.2103C18.1769 19.5239 17.9227 19.7781 17.6092 19.7781C17.2946 19.7781 17.0414 19.5239 17.0414 19.2103C17.0414 18.8968 17.2946 18.6437 17.6092 18.6437" fill="white"/>
<mask id="mask1_104_109" style="mask-type:alpha" maskUnits="userSpaceOnUse" x="17" y="18" width="2" height="2">
<path fill-rule="evenodd" clip-rule="evenodd" d="M17.0417 19.21C17.0417 19.5246 17.2948 19.7787 17.6094 19.7787V19.7787C17.9219 19.7787 18.1771 19.5246 18.1771 19.21V19.21C18.1771 18.8964 17.9219 18.6433 17.6094 18.6433V18.6433C17.2948 18.6433 17.0417 18.8964 17.0417 19.21V19.21Z" fill="white"/>
</mask>
<g mask="url(#mask1_104_109)">
<path fill-rule="evenodd" clip-rule="evenodd" d="M11.8333 24.986H23.3854V13.4349H11.8333V24.986Z" fill="white"/>
</g>
<path fill-rule="evenodd" clip-rule="evenodd" d="M17.6081 18.9967C17.4914 18.9967 17.3956 19.0925 17.3956 19.2102C17.3967 19.4488 17.8237 19.4467 17.8227 19.2102C17.8227 19.0925 17.7258 18.9967 17.6081 18.9967M17.6081 20.5592C16.8644 20.5592 16.2602 19.954 16.2602 19.2102C16.2602 18.4665 16.8644 17.8623 17.6081 17.8623C18.3529 17.8623 18.9581 18.4665 18.9581 19.2102C18.9581 19.954 18.3529 20.5592 17.6081 20.5592" fill="white"/>
</svg>
