<svg width="33" height="33" viewBox="0 0 33 33" fill="none" xmlns="http://www.w3.org/2000/svg">
<path fill-rule="evenodd" clip-rule="evenodd" d="M7.41668 2.80894C2.83334 2.80894 2.83334 3.15561 2.83334 7.39228V7.43394C2.83334 9.27894 2.83334 10.6123 3.28501 11.1756C3.72668 11.7223 5.03834 11.9756 7.41668 11.9756C9.79501 11.9756 11.1067 11.7206 11.5483 11.1739C12 10.6123 12 9.27894 12 7.43228C12 3.15561 12 2.80894 7.41668 2.80894M7.41668 14.4756C4.60668 14.4756 2.49834 14.1806 1.34001 12.7423C0.333344 11.4939 0.333344 9.79061 0.333344 7.43395L1.58334 7.39228H0.333344C0.333344 2.60895 0.635011 0.308945 7.41668 0.308945C14.1983 0.308945 14.5 2.60895 14.5 7.39228C14.5 9.78895 14.5 11.4939 13.4933 12.7423C12.335 14.1806 10.2267 14.4756 7.41668 14.4756" fill="white"/>
<path fill-rule="evenodd" clip-rule="evenodd" d="M25.75 2.80894C21.1667 2.80894 21.1667 3.15561 21.1667 7.39228V7.43394C21.1667 9.27894 21.1667 10.6123 21.6184 11.1756C22.06 11.7223 23.3717 11.9756 25.75 11.9756C28.1284 11.9756 29.44 11.7206 29.8817 11.1739C30.3334 10.6123 30.3334 9.27894 30.3334 7.43228C30.3334 3.15561 30.3334 2.80894 25.75 2.80894M25.75 14.4756C22.94 14.4756 20.8317 14.1806 19.6734 12.7423C18.6667 11.4939 18.6667 9.79061 18.6667 7.43395L19.9167 7.39228H18.6667C18.6667 2.60895 18.9684 0.308945 25.75 0.308945C32.5317 0.308945 32.8334 2.60895 32.8334 7.39228C32.8334 9.78895 32.8334 11.4939 31.8267 12.7423C30.6684 14.1806 28.56 14.4756 25.75 14.4756" fill="#FF3904"/>
<path fill-rule="evenodd" clip-rule="evenodd" d="M7.41668 21.1423C2.83334 21.1423 2.83334 21.4889 2.83334 25.7256V25.7673C2.83334 27.6123 2.83334 28.9456 3.28501 29.5089C3.72668 30.0556 5.03834 30.3089 7.41668 30.3089C9.79501 30.3089 11.1067 30.0539 11.5483 29.5073C12 28.9456 12 27.6123 12 25.7656C12 21.4889 12 21.1423 7.41668 21.1423M7.41668 32.8089C4.60668 32.8089 2.49834 32.5139 1.34001 31.0756C0.333344 29.8273 0.333344 28.1239 0.333344 25.7673L1.58334 25.7256H0.333344C0.333344 20.9423 0.635011 18.6423 7.41668 18.6423C14.1983 18.6423 14.5 20.9423 14.5 25.7256C14.5 28.1223 14.5 29.8273 13.4933 31.0756C12.335 32.5139 10.2267 32.8089 7.41668 32.8089" fill="white"/>
<path fill-rule="evenodd" clip-rule="evenodd" d="M25.75 21.1423C21.1667 21.1423 21.1667 21.4889 21.1667 25.7256V25.7673C21.1667 27.6123 21.1667 28.9456 21.6184 29.5089C22.06 30.0556 23.3717 30.3089 25.75 30.3089C28.1284 30.3089 29.44 30.0539 29.8817 29.5073C30.3334 28.9456 30.3334 27.6123 30.3334 25.7656C30.3334 21.4889 30.3334 21.1423 25.75 21.1423M25.75 32.8089C22.94 32.8089 20.8317 32.5139 19.6734 31.0756C18.6667 29.8273 18.6667 28.1239 18.6667 25.7673L19.9167 25.7256H18.6667C18.6667 20.9423 18.9684 18.6423 25.75 18.6423C32.5317 18.6423 32.8334 20.9423 32.8334 25.7256C32.8334 28.1223 32.8334 29.8273 31.8267 31.0756C30.6684 32.5139 28.56 32.8089 25.75 32.8089" fill="white"/>
</svg>
