<svg width="20" height="21" viewBox="0 0 20 21" fill="none" xmlns="http://www.w3.org/2000/svg">
<mask id="mask0_104_104" style="mask-type:alpha" maskUnits="userSpaceOnUse" x="0" y="0" width="20" height="21">
<path fill-rule="evenodd" clip-rule="evenodd" d="M0 0.57959H19.499V20.0786H0V0.57959Z" fill="white"/>
</mask>
<g mask="url(#mask0_104_104)">
<path fill-rule="evenodd" clip-rule="evenodd" d="M8.80491 12.397L12.4619 18.33C12.6219 18.59 12.8719 18.587 12.9729 18.573C13.0739 18.559 13.3169 18.497 13.4049 18.202L17.9779 2.757C18.0579 2.484 17.9109 2.298 17.8449 2.232C17.7809 2.166 17.5979 2.025 17.3329 2.1L1.87691 6.626C1.58391 6.712 1.51991 6.95799 1.50591 7.059C1.49191 7.16199 1.48791 7.417 1.74691 7.58L7.74791 11.333L13.0499 5.975C13.3409 5.681 13.8159 5.678 14.1109 5.969C14.4059 6.26 14.4079 6.736 14.1169 7.03L8.80491 12.397ZM12.8949 20.079C12.1989 20.079 11.5609 19.725 11.1849 19.117L7.30791 12.826L0.951914 8.851C0.266914 8.422 -0.0910856 7.658 0.0199145 6.855C0.129914 6.052 0.680914 5.414 1.45491 5.187L16.9109 0.660995C17.6219 0.452995 18.3839 0.649995 18.9079 1.172C19.4319 1.699 19.6269 2.469 19.4149 3.183L14.8419 18.627C14.6129 19.404 13.9729 19.953 13.1719 20.06C13.0779 20.072 12.9869 20.079 12.8949 20.079Z" fill="white"/>
</g>
</svg>
